<svg width="30" height="26" viewBox="0 0 30 26" fill="#ff0000" xmlns="http://www.w3.org/2000/svg">
<path d="M27.8738 2.07597C26.4563 0.691794 24.4978 0 21.9976 0C21.3057 0 20.5995 0.119971 19.8798 0.359794C19.1598 0.599794 18.49 0.923585 17.8711 1.33093C17.2515 1.73816 16.7189 2.12059 16.2722 2.47763C15.826 2.83479 15.4017 3.21434 15 3.616C14.5981 3.21434 14.174 2.83479 13.7277 2.47763C13.2811 2.12059 12.7484 1.7384 12.1288 1.33093C11.5094 0.923409 10.8397 0.599852 10.1199 0.359794C9.40009 0.120029 8.69405 0 8.00213 0C5.50205 0 3.54347 0.69197 2.1261 2.07597C0.70874 3.45985 0 5.37938 0 7.83473C0 8.58252 0.131346 9.35289 0.39351 10.1449C0.655674 10.9373 0.954427 11.6126 1.28918 12.1705C1.62388 12.7284 2.00344 13.2724 2.42755 13.8026C2.85167 14.3328 3.16163 14.6981 3.35671 14.899C3.55197 15.0999 3.70548 15.2452 3.81707 15.3345L14.2633 25.4127C14.4643 25.6136 14.7098 25.7143 14.9999 25.7143C15.2901 25.7143 15.5358 25.6136 15.7366 25.4127L26.1663 15.3677C28.7221 12.8123 29.9999 10.3011 29.9999 7.83449C30 5.37897 29.2913 3.45962 27.8738 2.07597ZM24.7097 13.7943L15 23.1524L5.27366 13.7774C3.18655 11.6908 2.14317 9.70951 2.14317 7.83449C2.14317 6.93061 2.26314 6.13251 2.50296 5.44071C2.74296 4.7488 3.04986 4.19897 3.42373 3.79162C3.79766 3.38415 4.25238 3.05239 4.78809 2.7955C5.32408 2.53885 5.84859 2.36581 6.36189 2.27657C6.8752 2.18744 7.42198 2.14281 8.00243 2.14281C8.58269 2.14281 9.20782 2.28495 9.87745 2.56963C10.547 2.85419 11.1636 3.21135 11.7271 3.64098C12.2908 4.0709 12.7735 4.47262 13.1755 4.84637C13.5772 5.22047 13.9119 5.56344 14.1798 5.87597C14.3806 6.1216 14.6542 6.24438 15.0001 6.24438C15.346 6.24438 15.6194 6.1216 15.8204 5.87597C16.0882 5.56344 16.4232 5.2203 16.8249 4.84637C17.2267 4.47262 17.7094 4.07108 18.2729 3.64098C18.8365 3.21135 19.4532 2.85419 20.123 2.56963C20.7924 2.28501 21.4177 2.14281 21.998 2.14281C22.5784 2.14281 23.125 2.18744 23.6385 2.27657C24.152 2.36575 24.6765 2.53885 25.2123 2.7955C25.7481 3.05233 26.2028 3.38433 26.5766 3.79162C26.9505 4.19897 27.2575 4.7488 27.4975 5.44071C27.7371 6.13251 27.8571 6.93061 27.8571 7.83449C27.8569 9.70951 26.8081 11.6963 24.7097 13.7943Z" fill="#ff0000"/>
</svg>
